<svg width="115" height="53" viewBox="0 0 115 53" fill="none" xmlns="http://www.w3.org/2000/svg">
<path fill-rule="evenodd" clip-rule="evenodd" d="M0 18.7755V52.8061L115 32.8571V0L0 18.7755ZM105.017 27.0524L105.043 8.7856L97.9572 10.0304C95.8482 10.4009 94.2137 11.2446 93.0536 12.5615C91.8936 13.8784 91.2841 15.3595 91.2253 17.0047C91.1708 18.1796 91.421 19.2575 91.9759 20.2384C92.5448 21.1994 93.3605 21.8822 94.4229 22.2869L90.5918 29.5865L96.362 28.5729L99.5344 22.276L99.9647 22.2005L99.9557 27.9416L105.017 27.0524ZM96.7766 18.0123C96.4503 17.7392 96.2849 17.3421 96.2804 16.8211C96.2927 16.2972 96.4592 15.8592 96.78 15.5072C97.0979 15.1383 97.5183 14.9079 98.0413 14.816L99.9647 14.4781L99.9695 17.921L98.0461 18.2589C97.5429 18.3647 97.1197 18.2825 96.7766 18.0123ZM74.4071 32.4558L74.4079 14.1934L79.4695 13.3042L79.4811 21.3897L85.0372 12.3261L89.0865 11.6148L89.0857 29.8772L84.0241 30.7664L84.0125 22.6808L78.4564 31.7444L74.4071 32.4558ZM71.8791 14.6376L66.8175 15.5268L66.8065 21.9987L62.5042 22.7545L62.5152 16.2825L57.4536 17.1717L57.4527 35.4341L62.5143 34.5449L62.5062 27.8154L66.8085 27.0596L66.8167 33.7892L71.8783 32.9L71.8791 14.6376ZM51.1471 36.5418L50.5445 34.2996L45.4323 35.1977L44.8201 37.6532L39.2271 38.6358L44.8716 19.382L50.7936 18.3416L56.4365 35.6126L51.1471 36.5418ZM46.5179 30.8328L49.4536 30.3171L47.9916 24.9648L46.5179 30.8328ZM38.2176 20.5509L33.156 21.44L33.145 27.912L28.8426 28.6678L28.8536 22.1958L23.792 23.085L23.7912 41.3473L28.8528 40.4582L28.8447 33.7287L33.147 32.9729L33.1552 39.7024L38.2167 38.8132L38.2176 20.5509ZM19.7138 32.9064C20.9838 31.918 21.6169 30.5719 21.6133 28.8681C21.6185 27.2149 20.9611 25.9477 19.641 25.0664C18.3378 24.1822 16.7413 23.9061 14.8517 24.2381C13.3332 24.5048 12.006 25.0684 10.8701 25.9289C9.7342 26.7893 8.90029 27.8837 8.36836 29.212L12.8547 31.1372C13.2019 29.9457 13.907 29.2566 14.97 29.0698C15.4424 28.9868 15.8145 29.0258 16.0862 29.1868C16.3719 29.3279 16.5151 29.5985 16.5158 29.9984C16.5222 30.7277 16.0827 31.1963 15.1974 31.404L13.1013 31.7983L13.0978 36.234L15.7849 35.7881C16.6403 35.7074 17.0613 36.0247 17.0479 36.7402C17.0214 37.5797 16.4093 38.1046 15.2113 38.3151C13.8616 38.5522 12.9316 38.159 12.4213 37.1355L8.40589 40.2672C9.81103 42.8205 12.1755 43.8053 15.4993 43.2214C17.6757 42.8391 19.3266 42.0882 20.4518 40.9687C21.574 39.8324 22.1377 38.4376 22.143 36.7843C22.1523 34.9565 21.3426 33.6638 19.7138 32.9064Z" fill="black"/>
</svg>
