<svg width="87" height="65" viewBox="0 0 87 65" fill="none" xmlns="http://www.w3.org/2000/svg">
<path fill-rule="evenodd" clip-rule="evenodd" d="M8.82605 38.2232V64.2251L87 49.4589V24.3536L8.82605 38.2232ZM68.0766 46.9348C69.5503 48.1891 71.3832 48.621 73.5751 48.2302C74.9093 47.9924 76.096 47.4789 77.1353 46.6896C78.1882 45.8979 79.0011 44.9032 79.5743 43.7053L76.2265 42.3004C75.5726 43.5969 74.5582 44.3677 73.1831 44.6128C72.094 44.8069 71.2128 44.5918 70.5396 43.9673C69.864 43.3292 69.5208 42.4281 69.5099 41.2642C69.5079 40.0705 69.8522 39.0469 70.5429 38.1934C71.2447 37.3238 72.1538 36.7895 73.2702 36.5905C74.618 36.3503 75.6601 36.7194 76.3964 37.6978L79.4288 35.3242C78.7222 34.3545 77.8186 33.6587 76.7179 33.2368C75.6285 32.7989 74.3826 32.7049 72.9804 32.9548C70.8701 33.331 69.1399 34.3418 67.7897 35.9871C66.4531 37.6301 65.8027 39.537 65.8385 41.7079C65.8704 43.9357 66.6164 45.678 68.0766 46.9348ZM57.0442 35.7955C58.5009 35.5358 59.8178 35.6733 60.9947 36.208C62.1852 36.7403 63.0959 37.5542 63.7266 38.6498C64.3686 39.7294 64.6927 40.9569 64.6991 42.3324C64.7091 44.4376 64.0495 46.3322 62.7202 48.0159C61.3885 49.6861 59.5994 50.7214 57.353 51.1218C55.5832 51.4373 54.0201 51.14 52.6639 50.2299C51.3077 49.3198 50.4371 48.0211 50.052 46.3339L48.2345 46.6579L48.2517 52.4281L44.5962 53.0797L44.56 38.3369L48.2154 37.6853L48.221 43.0361L50.0386 42.7122C50.3984 40.9484 51.2033 39.4353 52.4532 38.173C53.7168 36.9083 55.2471 36.1158 57.0442 35.7955ZM61.0481 42.7725C61.0373 41.6085 60.668 40.7191 59.9404 40.1044C59.2103 39.476 58.2939 39.26 57.1911 39.4566C56.0883 39.6532 55.1736 40.1955 54.447 41.0836C53.7315 41.9556 53.3724 42.9748 53.3696 44.1412C53.3692 45.3212 53.7192 46.221 54.4197 46.8407C55.1337 47.4579 56.0421 47.6682 57.1449 47.4716C58.2476 47.275 59.1703 46.7383 59.9131 45.8615C60.6669 44.9685 61.0453 43.9389 61.0481 42.7725ZM29.9856 52.2074L30.0013 55.7234C30.5916 55.6463 31.1646 55.5511 31.7203 55.438C32.2897 55.3225 32.8192 55.1017 33.309 54.7756C33.8098 54.4335 34.2429 54.0262 34.6082 53.5537C34.9871 53.0788 35.2812 52.4434 35.4905 51.6476C35.7135 50.8493 35.8236 49.9307 35.821 48.8916L35.795 43.5444L38.6744 43.0311L38.6936 54.1318L42.349 53.4802L42.3128 38.7374L32.1428 40.5502L32.1569 49.3762C32.1595 50.4152 31.9857 51.1345 31.6355 51.5341C31.2989 51.9312 30.7489 52.1556 29.9856 52.2074ZM28.7607 55.9024L28.7245 41.1595L17.6968 43.1252L17.7331 57.8681L21.3885 57.2165L21.3694 46.1158L25.0861 45.4533L25.1053 56.554L28.7607 55.9024Z" fill="#7AC834"/>
<path fill-rule="evenodd" clip-rule="evenodd" d="M0 14.6012V40.3461L87 25.2542V0.397095L0 14.6012ZM79.4479 20.8628L79.4676 7.04357L74.1068 7.98531C72.5113 8.26558 71.2747 8.90386 70.3971 9.90014C69.5195 10.8964 69.0584 12.0169 69.0139 13.2615C68.9727 14.1504 69.1619 14.9658 69.5818 15.7078C70.0121 16.4349 70.6292 16.9515 71.433 17.2576L68.5347 22.7799L72.8999 22.0131L75.2999 17.2494L75.6254 17.1922L75.6187 21.5355L79.4479 20.8628ZM73.2136 14.0238C72.9668 13.8171 72.8416 13.5168 72.8382 13.1226C72.8475 12.7263 72.9735 12.3949 73.2162 12.1286C73.4566 11.8495 73.7747 11.6752 74.1704 11.6057L75.6255 11.3501L75.6291 13.9547L74.174 14.2103C73.7933 14.2904 73.4732 14.2282 73.2136 14.0238ZM56.2906 24.9506L56.2912 11.1347L60.1204 10.462L60.1291 16.5789L64.3325 9.72207L67.3959 9.18393L67.3952 22.9998L63.566 23.6725L63.5573 17.5556L59.3539 24.4124L56.2906 24.9506ZM54.3781 11.4707L50.5489 12.1434L50.5406 17.0396L47.2857 17.6114L47.2941 12.7152L43.4648 13.3878L43.4642 27.2037L47.2934 26.5311L47.2873 21.4401L50.5421 20.8683L50.5482 25.9593L54.3774 25.2866L54.3781 11.4707ZM38.6939 28.0417L38.238 26.3455L34.3705 27.0249L33.9074 28.8826L29.6761 29.6259L33.9463 15.0599L38.4265 14.2729L42.6954 27.3388L38.6939 28.0417ZM35.1917 23.7227L37.4127 23.3326L36.3067 19.2835L35.1917 23.7227ZM28.9124 15.9442L25.0832 16.6169L25.0749 21.5131L21.8201 22.0849L21.8284 17.1887L17.9992 17.8613L17.9985 31.6772L21.8277 31.0046L21.8216 25.9136L25.0764 25.3418L25.0826 30.4328L28.9118 29.7601L28.9124 15.9442ZM14.9139 25.2915C15.8746 24.5438 16.3536 23.5254 16.3509 22.2364C16.3549 20.9857 15.8575 20.027 14.8588 19.3604C13.8729 18.6915 12.6651 18.4826 11.2356 18.7337C10.0868 18.9355 9.08277 19.3619 8.22344 20.0128C7.36411 20.6638 6.73323 21.4917 6.33082 22.4966L9.72482 23.953C9.98752 23.0516 10.5209 22.5303 11.3251 22.389C11.6825 22.3263 11.964 22.3557 12.1696 22.4775C12.3857 22.5843 12.494 22.789 12.4945 23.0915C12.4993 23.6433 12.1669 23.9977 11.4971 24.1549L9.91136 24.4532L9.90875 27.8089L11.9416 27.4715C12.5888 27.4105 12.9072 27.6506 12.8971 28.1918C12.8771 28.8269 12.4139 29.2241 11.5077 29.3833C10.4866 29.5626 9.78299 29.2652 9.39697 28.4909L6.35921 30.8601C7.42223 32.7917 9.211 33.5367 11.7255 33.095C13.3721 32.8058 14.621 32.2377 15.4722 31.3908C16.3212 30.5311 16.7476 29.4759 16.7516 28.2252C16.7587 26.8424 16.1461 25.8645 14.9139 25.2915Z" fill="white"/>
</svg>
